<svg class="searchbar__icon" xmlns="http://www.w3.org/2000/svg" width="14" height="14.001" viewBox="0 0 14 14.001"><g id="magnifying-glass" transform="translate(-0.001 0)"><path id="Path_3" data-name="Path 3" d="M9.35,1.6A5.479,5.479,0,1,0,8.6,9.971a1.153,1.153,0,0,0,.313.581l3.11,3.11a1.157,1.157,0,0,0,1.637-1.637l-3.11-3.111a1.157,1.157,0,0,0-.58-.312A5.484,5.484,0,0,0,9.35,1.6ZM8.368,8.368a4.09,4.09,0,1,1,0-5.784A4.094,4.094,0,0,1,8.368,8.368Z" transform="translate(0 0)" fill="#ffff"></path></g></svg>